{
  "accessors": [
    {
      "bufferView": 2,
      "componentType": 5126,
      "count": 2673,
      "max": [
        7.569518566131592,
        2.042924165725708,
        5.835340976715088
      ],
      "min": [
        -7.614676475524902,
        -1.316757321357727,
        -3.996302604675293
      ],
      "type": "VEC3"
    },
    {
      "bufferView": 2,
      "byteOffset": 32076,
      "componentType": 5126,
      "count": 2673,
      "max": [
        1.0,
        1.0,
        1.0
      ],
      "min": [
        -1.0,
        -1.0,
        -1.0
      ],
      "type": "VEC3"
    },
    {
      "bufferView": 1,
      "componentType": 5126,
      "count": 2673,
      "max": [
        1.0,
        1.0
      ],
      "min": [
        0.0,
        0.0
      ],
      "type": "VEC2"
    },
    {
      "bufferView": 0,
      "componentType": 5125,
      "count": 4296,
      "type": "SCALAR"
    },
    {
      "bufferView": 2,
      "byteOffset": 64152,
      "componentType": 5126,
      "count": 70,
      "max": [
        0.5731714367866516,
        1.0859205722808838,
        1.0184521675109863
      ],
      "min": [
        -0.5776025652885437,
        0.5658408403396606,
        -0.30723077058792114
      ],
      "type": "VEC3"
    },
    {
      "bufferView": 2,
      "byteOffset": 64992,
      "componentType": 5126,
      "count": 70,
      "max": [
        0.9167171716690063,
        0.999975323677063,
        0.8341269493103027
      ],
      "min": [
        -0.885522723197937,
        -0.42679086327552795,
        -0.5767980217933655
      ],
      "type": "VEC3"
    },
    {
      "bufferView": 1,
      "byteOffset": 21384,
      "componentType": 5126,
      "count": 70,
      "max": [
        0.7444462776184082,
        1.0
      ],
      "min": [
        0.0,
        0.25
      ],
      "type": "VEC2"
    },
    {
      "bufferView": 0,
      "byteOffset": 17184,
      "componentType": 5125,
      "count": 108,
      "type": "SCALAR"
    },
    {
      "bufferView": 2,
      "byteOffset": 65832,
      "componentType": 5126,
      "count": 132,
      "max": [
        0.7380443215370178,
        0.46849775314331055,
        -2.384521961212158
      ],
      "min": [
        -0.7462123036384583,
        -1.2527203559875488,
        -3.7220964431762695
      ],
      "type": "VEC3"
    },
    {
      "bufferView": 2,
      "byteOffset": 67416,
      "componentType": 5126,
      "count": 132,
      "max": [
        0.9999997615814209,
        0.9999006986618042,
        -9.999534813687205e-05
      ],
      "min": [
        -0.9999997615814209,
        -0.9859859943389893,
        -0.999935507774353
      ],
      "type": "VEC3"
    },
    {
      "bufferView": 1,
      "byteOffset": 21944,
      "componentType": 5126,
      "count": 132,
      "max": [
        0.7444462776184082,
        0.6194462776184082
      ],
      "min": [
        0.2555537223815918,
        0.5
      ],
      "type": "VEC2"
    },
    {
      "bufferView": 0,
      "byteOffset": 17616,
      "componentType": 5125,
      "count": 204,
      "type": "SCALAR"
    },
    {
      "bufferView": 2,
      "byteOffset": 69000,
      "componentType": 5126,
      "count": 216,
      "max": [
        0.2487764209508896,
        -0.23070061206817627,
        -3.9961185455322266
      ],
      "min": [
        -0.23939229547977448,
        -0.713018000125885,
        -4.347866535186768
      ],
      "type": "VEC3"
    },
    {
      "bufferView": 2,
      "byteOffset": 71592,
      "componentType": 5126,
      "count": 216,
      "max": [
        0.9951140284538269,
        0.9951348900794983,
        0.014200621284544468
      ],
      "min": [
        -0.9951140284538269,
        -0.9951348900794983,
        -0.9999935626983643
      ],
      "type": "VEC3"
    },
    {
      "bufferView": 1,
      "byteOffset": 23000,
      "componentType": 5126,
      "count": 216,
      "max": [
        1.0,
        0.9878125786781311
      ],
      "min": [
        0.0,
        0.08740293979644775
      ],
      "type": "VEC2"
    },
    {
      "bufferView": 0,
      "byteOffset": 18432,
      "componentType": 5125,
      "count": 258,
      "type": "SCALAR"
    },
    {
      "bufferView": 2,
      "byteOffset": 74184,
      "componentType": 5126,
      "count": 4934,
      "max": [
        0.8195962905883789,
        0.14517688751220703,
        -0.5442733764648438
      ],
      "min": [
        -0.8329484462738037,
        -0.6220653057098389,
        -2.555318832397461
      ],
      "type": "VEC3"
    },
    {
      "bufferView": 2,
      "byteOffset": 133392,
      "componentType": 5126,
      "count": 4934,
      "max": [
        0.9918344020843506,
        0.9997385144233704,
        0.9938423037528992
      ],
      "min": [
        -0.9971818327903748,
        -0.9997385144233704,
        -0.9938423037528992
      ],
      "type": "VEC3"
    },
    {
      "bufferView": 1,
      "byteOffset": 24728,
      "componentType": 5126,
      "count": 4934,
      "max": [
        1.0,
        0.9900000095367432
      ],
      "min": [
        0.0,
        0.0
      ],
      "type": "VEC2"
    },
    {
      "bufferView": 0,
      "byteOffset": 19464,
      "componentType": 5125,
      "count": 8400,
      "type": "SCALAR"
    },
    {
      "bufferView": 2,
      "byteOffset": 192600,
      "componentType": 5126,
      "count": 96,
      "max": [
        4.299849033355713,
        -0.4888658821582794,
        1.3862597942352295
      ],
      "min": [
        -4.345006942749023,
        -0.9333254098892212,
        -1.3004891872406006
      ],
      "type": "VEC3"
    },
    {
      "bufferView": 2,
      "byteOffset": 193752,
      "componentType": 5126,
      "count": 96,
      "max": [
        0.2535918056964874,
        0.96626877784729,
        0.9954774975776672
      ],
      "min": [
        -0.2535918056964874,
        -0.9695017337799072,
        -0.9919144511222839
      ],
      "type": "VEC3"
    },
    {
      "bufferView": 1,
      "byteOffset": 64200,
      "componentType": 5126,
      "count": 96,
      "max": [
        0.75,
        0.625
      ],
      "min": [
        0.25,
        0.125
      ],
      "type": "VEC2"
    },
    {
      "bufferView": 0,
      "byteOffset": 53064,
      "componentType": 5125,
      "count": 144,
      "type": "SCALAR"
    },
    {
      "bufferView": 2,
      "byteOffset": 194904,
      "componentType": 5126,
      "count": 76,
      "max": [
        0.1618710309267044,
        2.042924165725708,
        4.458681106567383
      ],
      "min": [
        -0.24375088512897491,
        0.39124834537506104,
        3.4144675731658936
      ],
      "type": "VEC3"
    },
    {
      "bufferView": 2,
      "byteOffset": 195816,
      "componentType": 5126,
      "count": 76,
      "max": [
        1.0,
        0.29130885004997253,
        0.745220422744751
      ],
      "min": [
        -1.0,
        -0.9994879364967346,
        -0.9566290974617004
      ],
      "type": "VEC3"
    },
    {
      "bufferView": 1,
      "byteOffset": 64968,
      "componentType": 5126,
      "count": 76,
      "max": [
        0.625,
        1.0
      ],
      "min": [
        0.0,
        0.5
      ],
      "type": "VEC2"
    },
    {
      "bufferView": 0,
      "byteOffset": 53640,
      "componentType": 5125,
      "count": 120,
      "type": "SCALAR"
    },
    {
      "bufferView": 2,
      "byteOffset": 196728,
      "componentType": 5126,
      "count": 2400,
      "max": [
        2.2389612197875977,
        2.5898709297180176,
        0.0649876594543457
      ],
      "min": [
        -2.269998550415039,
        -1.341900110244751,
        -0.0650033950805664
      ],
      "type": "VEC3"
    },
    {
      "bufferView": 2,
      "byteOffset": 225528,
      "componentType": 5126,
      "count": 2400,
      "max": [
        0.866019070148468,
        1.0,
        0.9933289289474487
      ],
      "min": [
        -0.866019070148468,
        -0.8384137749671936,
        -0.9933289289474487
      ],
      "type": "VEC3"
    },
    {
      "bufferView": 1,
      "byteOffset": 65576,
      "componentType": 5126,
      "count": 2400,
      "max": [
        1.0,
        0.9900000095367432
      ],
      "min": [
        0.0,
        0.3999999165534973
      ],
      "type": "VEC2"
    },
    {
      "bufferView": 0,
      "byteOffset": 54120,
      "componentType": 5125,
      "count": 3726,
      "type": "SCALAR"
    },
    {
      "bufferView": 2,
      "byteOffset": 254328,
      "componentType": 5126,
      "count": 9312,
      "max": [
        1.9466052055358887,
        2.187803268432617,
        0.16669034957885742
      ],
      "min": [
        -1.97764253616333,
        -1.237595558166504,
        -0.16670560836791992
      ],
      "type": "VEC3"
    },
    {
      "bufferView": 2,
      "byteOffset": 366072,
      "componentType": 5126,
      "count": 9312,
      "max": [
        0.9999687671661377,
        0.935100257396698,
        0.9976178407669067
      ],
      "min": [
        -0.9999687671661377,
        -1.0,
        -0.9976178407669067
      ],
      "type": "VEC3"
    },
    {
      "bufferView": 1,
      "byteOffset": 84776,
      "componentType": 5126,
      "count": 9312,
      "max": [
        1.0,
        0.9900000095367432
      ],
      "min": [
        0.0,
        0.0
      ],
      "type": "VEC2"
    },
    {
      "bufferView": 0,
      "byteOffset": 69024,
      "componentType": 5125,
      "count": 14094,
      "type": "SCALAR"
    },
    {
      "bufferView": 3,
      "componentType": 5126,
      "count": 20,
      "max": [
        0.8333333134651184
      ],
      "min": [
        0.0416666679084301
      ],
      "type": "SCALAR"
    },
    {
      "bufferView": 4,
      "componentType": 5126,
      "count": 20,
      "max": [
        0.0,
        0.0,
        0.9967234134674072,
        1.0
      ],
      "min": [
        0.0,
        0.0,
        -0.996457040309906,
        0.08088524639606476
      ],
      "type": "VEC4"
    }
  ],
  "animations": [
    {
      "channels": [
        {
          "sampler": 0,
          "target": {
            "node": 11,
            "path": "rotation"
          }
        }
      ],
      "name": "helice",
      "samplers": [
        {
          "input": 36,
          "interpolation": "LINEAR",
          "output": 37
        }
      ]
    }
  ],
  "asset": {
    "extras": {
      "author": "The lighthouse keeper (https://sketchfab.com/geminga)",
      "license": "SKETCHFAB Standard (https://sketchfab.com/licenses)",
      "source": "https://sketchfab.com/3d-models/plane-corsair-f4u-4-low-poly-edition-b2c835f8356346ae8504ceec352cd692",
      "title": "Plane Corsair F4U-4 low poly edition"
    },
    "generator": "Sketchfab-16.29.0",
    "version": "2.0"
  },
  "bufferViews": [
    {
      "buffer": 0,
      "byteLength": 125400,
      "name": "floatBufferViews",
      "target": 34963
    },
    {
      "buffer": 0,
      "byteLength": 159272,
      "byteOffset": 125400,
      "byteStride": 8,
      "name": "floatBufferViews",
      "target": 34962
    },
    {
      "buffer": 0,
      "byteLength": 477816,
      "byteOffset": 284672,
      "byteStride": 12,
      "name": "floatBufferViews",
      "target": 34962
    },
    {
      "buffer": 0,
      "byteLength": 80,
      "byteOffset": 762488,
      "name": "floatBufferViews"
    },
    {
      "buffer": 0,
      "byteLength": 320,
      "byteOffset": 762568,
      "byteStride": 16,
      "name": "floatBufferViews"
    }
  ],
  "buffers": [
    {
      "byteLength": 762888,
      "uri": "scene.bin"
    }
  ],
  "extensionsUsed": [
    "KHR_materials_clearcoat",
    "KHR_materials_specular"
  ],
  "materials": [
    {
      "doubleSided": true,
      "extensions": {
        "KHR_materials_clearcoat": {
          "clearcoatFactor": 1.0,
          "clearcoatRoughnessFactor": 0.03
        },
        "KHR_materials_specular": {
          "specularColorFactor": [
            1.0,
            1.0,
            1.0
          ],
          "specularFactor": 1.0
        }
      },
      "name": "blue",
      "pbrMetallicRoughness": {
        "baseColorFactor": [
          0.025091,
          0.114522,
          0.214034,
          1.0
        ],
        "metallicFactor": 0.0,
        "roughnessFactor": 0.5
      }
    },
    {
      "doubleSided": true,
      "extensions": {
        "KHR_materials_specular": {
          "specularColorFactor": [
            1.0,
            1.0,
            1.0
          ],
          "specularFactor": 1.0
        }
      },
      "name": "vitre",
      "pbrMetallicRoughness": {
        "baseColorFactor": [
          0.665388,
          0.846874,
          0.913099,
          1.0
        ],
        "metallicFactor": 0.0,
        "roughnessFactor": 0.5
      }
    },
    {
      "doubleSided": true,
      "name": "jaune",
      "pbrMetallicRoughness": {
        "baseColorFactor": [
          0.726758,
          0.381326,
          0.0221739,
          1.0
        ],
        "metallicFactor": 0.0,
        "roughnessFactor": 0.5
      }
    },
    {
      "doubleSided": true,
      "name": "bleu_clair",
      "pbrMetallicRoughness": {
        "baseColorFactor": [
          0.0444883,
          0.0833295,
          0.104617,
          1.0
        ],
        "metallicFactor": 0.0,
        "roughnessFactor": 0.5
      }
    },
    {
      "doubleSided": true,
      "name": "gris",
      "pbrMetallicRoughness": {
        "baseColorFactor": [
          0.0561285,
          0.0648033,
          0.0612461,
          1.0
        ],
        "metallicFactor": 0.0,
        "roughnessFactor": 0.5
      }
    },
    {
      "doubleSided": true,
      "name": "blanc",
      "pbrMetallicRoughness": {
        "baseColorFactor": [
          0.8,
          0.8,
          0.8,
          1.0
        ],
        "metallicFactor": 0.0,
        "roughnessFactor": 0.5
      }
    },
    {
      "doubleSided": true,
      "name": "rouge",
      "pbrMetallicRoughness": {
        "baseColorFactor": [
          0.323318,
          0.0,
          0.00680105,
          1.0
        ],
        "metallicFactor": 0.0,
        "roughnessFactor": 0.5
      }
    }
  ],
  "meshes": [
    {
      "name": "Object_0",
      "primitives": [
        {
          "attributes": {
            "NORMAL": 1,
            "POSITION": 0,
            "TEXCOORD_0": 2
          },
          "indices": 3,
          "material": 0,
          "mode": 4
        }
      ]
    },
    {
      "name": "Object_1",
      "primitives": [
        {
          "attributes": {
            "NORMAL": 5,
            "POSITION": 4,
            "TEXCOORD_0": 6
          },
          "indices": 7,
          "material": 1,
          "mode": 4
        }
      ]
    },
    {
      "name": "Object_2",
      "primitives": [
        {
          "attributes": {
            "NORMAL": 9,
            "POSITION": 8,
            "TEXCOORD_0": 10
          },
          "indices": 11,
          "material": 2,
          "mode": 4
        }
      ]
    },
    {
      "name": "Object_3",
      "primitives": [
        {
          "attributes": {
            "NORMAL": 13,
            "POSITION": 12,
            "TEXCOORD_0": 14
          },
          "indices": 15,
          "material": 3,
          "mode": 4
        }
      ]
    },
    {
      "name": "Object_4",
      "primitives": [
        {
          "attributes": {
            "NORMAL": 17,
            "POSITION": 16,
            "TEXCOORD_0": 18
          },
          "indices": 19,
          "material": 4,
          "mode": 4
        }
      ]
    },
    {
      "name": "Object_5",
      "primitives": [
        {
          "attributes": {
            "NORMAL": 21,
            "POSITION": 20,
            "TEXCOORD_0": 22
          },
          "indices": 23,
          "material": 5,
          "mode": 4
        }
      ]
    },
    {
      "name": "Object_6",
      "primitives": [
        {
          "attributes": {
            "NORMAL": 25,
            "POSITION": 24,
            "TEXCOORD_0": 26
          },
          "indices": 27,
          "material": 6,
          "mode": 4
        }
      ]
    },
    {
      "name": "Object_7",
      "primitives": [
        {
          "attributes": {
            "NORMAL": 29,
            "POSITION": 28,
            "TEXCOORD_0": 30
          },
          "indices": 31,
          "material": 2,
          "mode": 4
        }
      ]
    },
    {
      "name": "Object_8",
      "primitives": [
        {
          "attributes": {
            "NORMAL": 33,
            "POSITION": 32,
            "TEXCOORD_0": 34
          },
          "indices": 35,
          "material": 4,
          "mode": 4
        }
      ]
    }
  ],
  "nodes": [
    {
      "children": [
        1
      ],
      "matrix": [
        1.0,
        0.0,
        0.0,
        0.0,
        0.0,
        2.220446049250313e-16,
        -1.0,
        0.0,
        0.0,
        1.0,
        2.220446049250313e-16,
        0.0,
        0.0,
        0.0,
        0.0,
        1.0
      ],
      "name": "Sketchfab_model"
    },
    {
      "children": [
        2
      ],
      "name": "root"
    },
    {
      "children": [
        3,
        11
      ],
      "matrix": [
        1.0,
        0.0,
        0.0,
        0.0,
        0.0,
        2.220446049250313e-16,
        1.0,
        0.0,
        0.0,
        -1.0,
        2.220446049250313e-16,
        0.0,
        0.0,
        0.0,
        0.0,
        1.0
      ],
      "name": "GLTF_SceneRootNode"
    },
    {
      "children": [
        4,
        5,
        6,
        7,
        8,
        9,
        10
      ],
      "name": "Cube.007_0",
      "translation": [
        -0.03516748547554016,
        1.2763882875442505,
        0.17251132428646088
      ]
    },
    {
      "mesh": 0,
      "name": "Object_4"
    },
    {
      "mesh": 1,
      "name": "Object_5"
    },
    {
      "mesh": 2,
      "name": "Object_6"
    },
    {
      "mesh": 3,
      "name": "Object_7"
    },
    {
      "mesh": 4,
      "name": "Object_8"
    },
    {
      "mesh": 5,
      "name": "Object_9"
    },
    {
      "mesh": 6,
      "name": "Object_10"
    },
    {
      "children": [
        12,
        13
      ],
      "name": "Cube.004_1",
      "translation": [
        -0.03238058090209961,
        0.7683135271072388,
        -4.076415538787842
      ]
    },
    {
      "mesh": 7,
      "name": "Object_12"
    },
    {
      "mesh": 8,
      "name": "Object_13"
    }
  ],
  "scene": 0,
  "scenes": [
    {
      "name": "Sketchfab_Scene",
      "nodes": [
        0
      ]
    }
  ]
}
